NotoSansHebrew-CondensedSemiBold.ufo
<glyph name="etnahtaleft-hb" format="2">
  <unicode hex="0591"/>
  <note>
uni0591
</note>
  <anchor x="128" y="0" name="_bottomleft"/>
  <outline>
    <contour>
      <point x="50" y="-221" type="line"/>
      <point x="91" y="-221" type="line"/>
      <point x="91" y="-201" type="line" smooth="yes"/>
      <point x="91" y="-171"/>
      <point x="101" y="-160"/>
      <point x="129" y="-160" type="curve" smooth="yes"/>
      <point x="155" y="-160"/>
      <point x="165" y="-171"/>
      <point x="165" y="-201" type="curve" smooth="yes"/>
      <point x="165" y="-221" type="line"/>
      <point x="207" y="-221" type="line"/>
      <point x="207" y="-200" type="line" smooth="yes"/>
      <point x="207" y="-151"/>
      <point x="189" y="-128"/>
      <point x="150" y="-122" type="curve"/>
      <point x="150" y="-83" type="line"/>
      <point x="106" y="-83" type="line"/>
      <point x="106" y="-122" type="line"/>
      <point x="69" y="-128"/>
      <point x="50" y="-151"/>
      <point x="50" y="-200" type="curve" smooth="yes"/>
    </contour>
  </outline>
</glyph>
<glyph name="segolta-hb" format="2">
  <unicode hex="0592"/>
  <note>
uni0592
</note>
  <anchor x="200" y="546" name="_topleft"/>
  <outline>
    <contour>
      <point x="141" y="757" type="curve" smooth="yes"/>
      <point x="162" y="757"/>
      <point x="179" y="767"/>
      <point x="179" y="791" type="curve" smooth="yes"/>
      <point x="179" y="816"/>
      <point x="162" y="827"/>
      <point x="141" y="827" type="curve" smooth="yes"/>
      <point x="120" y="827"/>
      <point x="104" y="816"/>
      <point x="104" y="791" type="curve"/>
      <point x="104" y="767"/>
      <point x="120" y="757"/>
    </contour>
    <contour>
      <point x="87" y="662" type="curve" smooth="yes"/>
      <point x="108" y="662"/>
      <point x="125" y="674"/>
      <point x="125" y="698" type="curve" smooth="yes"/>
      <point x="125" y="722"/>
      <point x="108" y="733"/>
      <point x="87" y="733" type="curve" smooth="yes"/>
      <point x="66" y="733"/>
      <point x="50" y="722"/>
      <point x="50" y="698" type="curve"/>
      <point x="50" y="674"/>
      <point x="66" y="662"/>
    </contour>
    <contour>
      <point x="194" y="662" type="curve" smooth="yes"/>
      <point x="215" y="662"/>
      <point x="232" y="674"/>
      <point x="232" y="698" type="curve" smooth="yes"/>
      <point x="232" y="722"/>
      <point x="215" y="733"/>
      <point x="194" y="733" type="curve" smooth="yes"/>
      <point x="173" y="733"/>
      <point x="157" y="722"/>
      <point x="157" y="698" type="curve"/>
      <point x="157" y="674"/>
      <point x="173" y="662"/>
    </contour>
  </outline>
</glyph>
<glyph name="shalshelet-hb" format="2">
  <unicode hex="0593"/>
  <note>
uni0593
</note>
  <anchor x="115" y="546" name="_top"/>
  <outline>
    <contour>
      <point x="50" y="659" type="line"/>
      <point x="102" y="659" type="line"/>
      <point x="180" y="697" type="line"/>
      <point x="111" y="735" type="line"/>
      <point x="180" y="773" type="line"/>
      <point x="111" y="810" type="line"/>
      <point x="180" y="848" type="line"/>
      <point x="119" y="848" type="line"/>
      <point x="50" y="810" type="line"/>
      <point x="119" y="773" type="line"/>
      <point x="50" y="735" type="line"/>
      <point x="119" y="697" type="line"/>
    </contour>
  </outline>
</glyph>
<glyph name="zaqefqatan-hb" format="2">
  <unicode hex="0594"/>
  <note>
uni0594
</note>
  <anchor x="88" y="546" name="_top"/>
  <outline>
    <contour>
      <point x="87" y="756" type="curve" smooth="yes"/>
      <point x="108" y="756"/>
      <point x="125" y="767"/>
      <point x="125" y="791" type="curve" smooth="yes"/>
      <point x="125" y="815"/>
      <point x="108" y="827"/>
      <point x="87" y="827" type="curve" smooth="yes"/>
      <point x="66" y="827"/>
      <point x="50" y="815"/>
      <point x="50" y="791" type="curve" smooth="yes"/>
      <point x="50" y="767"/>
      <point x="66" y="756"/>
    </contour>
    <contour>
      <point x="87" y="662" type="curve" smooth="yes"/>
      <point x="108" y="662"/>
      <point x="125" y="673"/>
      <point x="125" y="698" type="curve" smooth="yes"/>
      <point x="125" y="721"/>
      <point x="108" y="732"/>
      <point x="87" y="732" type="curve" smooth="yes"/>
      <point x="66" y="732"/>
      <point x="50" y="721"/>
      <point x="50" y="698" type="curve" smooth="yes"/>
      <point x="50" y="673"/>
      <point x="66" y="662"/>
    </contour>
  </outline>
</glyph>
<glyph name="zaqefgadol-hb" format="2">
  <unicode hex="0595"/>
  <note>
uni0595
</note>
  <anchor x="130" y="546" name="_top"/>
  <outline>
    <contour>
      <point x="50" y="662" type="line"/>
      <point x="97" y="662" type="line"/>
      <point x="97" y="827" type="line"/>
      <point x="50" y="827" type="line"/>
    </contour>
    <contour>
      <point x="172" y="662" type="curve" smooth="yes"/>
      <point x="193" y="662"/>
      <point x="210" y="673"/>
      <point x="210" y="698" type="curve" smooth="yes"/>
      <point x="210" y="721"/>
      <point x="193" y="732"/>
      <point x="172" y="732" type="curve" smooth="yes"/>
      <point x="152" y="732"/>
      <point x="135" y="721"/>
      <point x="135" y="698" type="curve" smooth="yes"/>
      <point x="135" y="673"/>
      <point x="152" y="662"/>
    </contour>
    <contour>
      <point x="172" y="756" type="curve" smooth="yes"/>
      <point x="193" y="756"/>
      <point x="210" y="767"/>
      <point x="210" y="791" type="curve" smooth="yes"/>
      <point x="210" y="815"/>
      <point x="193" y="827"/>
      <point x="172" y="827" type="curve" smooth="yes"/>
      <point x="152" y="827"/>
      <point x="135" y="815"/>
      <point x="135" y="791" type="curve" smooth="yes"/>
      <point x="135" y="767"/>
      <point x="152" y="756"/>
    </contour>
  </outline>
</glyph>
<glyph name="tipehaleft-hb" format="2">
  <unicode hex="0596"/>
  <note>
uni0596
</note>
  <anchor x="68" y="0" name="_bottomleft"/>
  <outline>
    <contour>
      <point x="186" y="-209" type="curve"/>
      <point x="186" y="-165" type="line"/>
      <point x="130" y="-165"/>
      <point x="95" y="-134"/>
      <point x="95" y="-83" type="curve"/>
      <point x="50" y="-83" type="line"/>
      <point x="50" y="-162"/>
      <point x="100" y="-209"/>
    </contour>
  </outline>
</glyph>
<glyph name="reviamugrash-hb" format="2">
  <unicode hex="0597"/>
  <note>
uni0597
</note>
  <anchor x="148" y="546" name="_topleft"/>
  <outline>
    <contour>
      <point x="113" y="650" type="line"/>
      <point x="176" y="719" type="line"/>
      <point x="113" y="790" type="line"/>
      <point x="50" y="719" type="line"/>
    </contour>
  </outline>
</glyph>
<glyph name="pashta-hb" format="2">
  <unicode hex="0599"/>
  <note>
uni0599
</note>
  <anchor x="193" y="546" name="_topleft"/>
  <outline>
    <contour>
      <point x="141" y="650" type="curve"/>
      <point x="186" y="650" type="line"/>
      <point x="186" y="731"/>
      <point x="135" y="777"/>
      <point x="50" y="777" type="curve"/>
      <point x="50" y="732" type="line"/>
      <point x="108" y="732"/>
      <point x="141" y="701"/>
    </contour>
  </outline>
</glyph>
<glyph name="yetiv-hb" format="2">
  <unicode hex="059A"/>
  <note>
uni059A
</note>
  <anchor x="159" y="0" name="_bottomleft"/>
  <outline>
    <contour>
      <point x="125" y="-233" type="line"/>
      <point x="185" y="-233" type="line"/>
      <point x="110" y="-158" type="line"/>
      <point x="185" y="-83" type="line"/>
      <point x="125" y="-83" type="line"/>
      <point x="50" y="-158" type="line"/>
    </contour>
  </outline>
</glyph>
<glyph name="tevirleft-hb" format="2">
  <unicode hex="059B"/>
  <note>
uni059B
</note>
  <anchor x="185" y="0" name="_bottomleft"/>
  <outline>
    <contour>
      <point x="66" y="-206" type="line"/>
      <point x="153" y="-206"/>
      <point x="202" y="-158"/>
      <point x="202" y="-80" type="curve"/>
      <point x="157" y="-80" type="line"/>
      <point x="157" y="-131"/>
      <point x="121" y="-162"/>
      <point x="66" y="-162" type="curve"/>
    </contour>
    <contour>
      <point x="83" y="-119" type="curve" smooth="yes"/>
      <point x="102" y="-119"/>
      <point x="116" y="-104"/>
      <point x="116" y="-85" type="curve" smooth="yes"/>
      <point x="116" y="-66"/>
      <point x="102" y="-52"/>
      <point x="83" y="-52" type="curve" smooth="yes"/>
      <point x="65" y="-52"/>
      <point x="50" y="-67"/>
      <point x="50" y="-85" type="curve" smooth="yes"/>
      <point x="50" y="-104"/>
      <point x="65" y="-119"/>
    </contour>
  </outline>
</glyph>
<glyph name="gereshmuqdam-hb" format="2">
  <unicode hex="059D"/>
  <note>
uni059D
</note>
  <anchor x="118" y="546" name="_top"/>
  <outline>
    <contour>
      <point x="50" y="650" type="curve"/>
      <point x="95" y="650" type="line"/>
      <point x="95" y="702"/>
      <point x="130" y="732"/>
      <point x="186" y="732" type="curve"/>
      <point x="186" y="777" type="line"/>
      <point x="101" y="777"/>
      <point x="50" y="730"/>
    </contour>
  </outline>
</glyph>
<glyph name="gershayimaccent-hb" format="2">
  <unicode hex="059E"/>
  <note>
uni059E
</note>
  <anchor x="136" y="546" name="_top"/>
  <outline>
    <contour>
      <point x="186" y="650" type="curve"/>
      <point x="232" y="650" type="line"/>
      <point x="232" y="702"/>
      <point x="266" y="732"/>
      <point x="322" y="732" type="curve"/>
      <point x="322" y="777" type="line"/>
      <point x="237" y="777"/>
      <point x="186" y="730"/>
    </contour>
    <contour>
      <point x="50" y="650" type="curve"/>
      <point x="96" y="650" type="line"/>
      <point x="96" y="702"/>
      <point x="130" y="732"/>
      <point x="186" y="732" type="curve"/>
      <point x="186" y="777" type="line"/>
      <point x="100" y="777"/>
      <point x="50" y="729"/>
    </contour>
  </outline>
</glyph>
<glyph name="qarneypara-hb" format="2">
  <unicode hex="059F"/>
  <note>
uni059F
</note>
  <anchor x="255" y="546" name="_top"/>
  <outline>
    <contour>
      <point x="299" y="650" type="line"/>
      <point x="333" y="684" type="line"/>
      <point x="346" y="678"/>
      <point x="360" y="675"/>
      <point x="375" y="675" type="curve" smooth="yes"/>
      <point x="423" y="675"/>
      <point x="460" y="712"/>
      <point x="460" y="759" type="curve" smooth="yes"/>
      <point x="460" y="807"/>
      <point x="422" y="843"/>
      <point x="375" y="843" type="curve" smooth="yes"/>
      <point x="328" y="843"/>
      <point x="290" y="806"/>
      <point x="290" y="759" type="curve" smooth="yes"/>
      <point x="290" y="744"/>
      <point x="295" y="729"/>
      <point x="302" y="718" type="curve"/>
      <point x="267" y="682" type="line"/>
    </contour>
    <contour>
      <point x="211" y="650" type="line"/>
      <point x="243" y="682" type="line"/>
      <point x="208" y="718" type="line"/>
      <point x="215" y="729"/>
      <point x="220" y="744"/>
      <point x="220" y="759" type="curve" smooth="yes"/>
      <point x="220" y="806"/>
      <point x="182" y="843"/>
      <point x="135" y="843" type="curve" smooth="yes"/>
      <point x="88" y="843"/>
      <point x="50" y="806"/>
      <point x="50" y="759" type="curve" smooth="yes"/>
      <point x="50" y="712"/>
      <point x="87" y="675"/>
      <point x="135" y="675" type="curve" smooth="yes"/>
      <point x="150" y="675"/>
      <point x="164" y="678"/>
      <point x="177" y="684" type="curve"/>
    </contour>
    <contour>
      <point x="136" y="717" type="curve" smooth="yes"/>
      <point x="113" y="717"/>
      <point x="93" y="736"/>
      <point x="93" y="759" type="curve" smooth="yes"/>
      <point x="93" y="782"/>
      <point x="114" y="801"/>
      <point x="136" y="801" type="curve" smooth="yes"/>
      <point x="158" y="801"/>
      <point x="178" y="782"/>
      <point x="178" y="759" type="curve" smooth="yes"/>
      <point x="178" y="736"/>
      <point x="159" y="717"/>
    </contour>
    <contour>
      <point x="374" y="717" type="curve" smooth="yes"/>
      <point x="351" y="717"/>
      <point x="332" y="736"/>
      <point x="332" y="759" type="curve" smooth="yes"/>
      <point x="332" y="782"/>
      <point x="352" y="801"/>
      <point x="374" y="801" type="curve" smooth="yes"/>
      <point x="396" y="801"/>
      <point x="417" y="782"/>
      <point x="417" y="759" type="curve" smooth="yes"/>
      <point x="417" y="736"/>
      <point x="397" y="717"/>
    </contour>
  </outline>
</glyph>
<glyph name="telishagedola-hb" format="2">
  <unicode hex="05A0"/>
  <note>
uni05A0
</note>
  <anchor x="146" y="546" name="_top"/>
  <outline>
    <contour>
      <point x="82" y="650" type="line"/>
      <point x="116" y="684" type="line"/>
      <point x="129" y="678"/>
      <point x="142" y="675"/>
      <point x="158" y="675" type="curve" smooth="yes"/>
      <point x="205" y="675"/>
      <point x="242" y="712"/>
      <point x="242" y="759" type="curve" smooth="yes"/>
      <point x="242" y="807"/>
      <point x="205" y="843"/>
      <point x="158" y="843" type="curve" smooth="yes"/>
      <point x="111" y="843"/>
      <point x="73" y="806"/>
      <point x="73" y="759" type="curve" smooth="yes"/>
      <point x="73" y="744"/>
      <point x="78" y="729"/>
      <point x="85" y="718" type="curve"/>
      <point x="50" y="682" type="line"/>
    </contour>
    <contour>
      <point x="157" y="717" type="curve" smooth="yes"/>
      <point x="134" y="717"/>
      <point x="115" y="736"/>
      <point x="115" y="759" type="curve" smooth="yes"/>
      <point x="115" y="782"/>
      <point x="135" y="801"/>
      <point x="157" y="801" type="curve" smooth="yes"/>
      <point x="179" y="801"/>
      <point x="200" y="782"/>
      <point x="200" y="759" type="curve" smooth="yes"/>
      <point x="200" y="736"/>
      <point x="180" y="717"/>
    </contour>
  </outline>
</glyph>
<glyph name="pazer-hb" format="2">
  <unicode hex="05A1"/>
  <note>
uni05A1
</note>
  <anchor x="118" y="546" name="_top"/>
  <outline>
    <contour>
      <point x="50" y="650" type="line"/>
      <point x="91" y="650" type="line"/>
      <point x="91" y="692" type="line"/>
      <point x="97" y="689"/>
      <point x="105" y="688"/>
      <point x="114" y="688" type="curve" smooth="yes"/>
      <point x="163" y="688"/>
      <point x="186" y="718"/>
      <point x="186" y="767" type="curve" smooth="yes"/>
      <point x="186" y="788" type="line"/>
      <point x="144" y="788" type="line"/>
      <point x="144" y="767" type="line" smooth="yes"/>
      <point x="144" y="736"/>
      <point x="135" y="726"/>
      <point x="109" y="726" type="curve" smooth="yes"/>
      <point x="99" y="726"/>
      <point x="95" y="727"/>
      <point x="91" y="731" type="curve"/>
      <point x="91" y="788" type="line"/>
      <point x="50" y="788" type="line"/>
    </contour>
  </outline>
</glyph>
<glyph name="munahleft-hb" format="2">
  <unicode hex="05A3"/>
  <note>
uni05A3
</note>
  <anchor x="193" y="0" name="_bottomleft"/>
  <outline>
    <contour>
      <point x="50" y="-214" type="line"/>
      <point x="186" y="-214" type="line"/>
      <point x="186" y="-84" type="line"/>
      <point x="141" y="-84" type="line"/>
      <point x="141" y="-170" type="line"/>
      <point x="50" y="-170" type="line"/>
    </contour>
  </outline>
</glyph>
<glyph name="mahapakhleft-hb" format="2">
  <unicode hex="05A4"/>
  <note>
uni05A4
</note>
  <anchor x="118" y="0" name="_bottomleft"/>
  <outline>
    <contour>
      <point x="125" y="-233" type="line"/>
      <point x="186" y="-233" type="line"/>
      <point x="111" y="-158" type="line"/>
      <point x="186" y="-83" type="line"/>
      <point x="125" y="-83" type="line"/>
      <point x="50" y="-158" type="line"/>
    </contour>
  </outline>
</glyph>
<glyph name="merkhaleft-hb" format="2">
  <unicode hex="05A5"/>
  <note>
uni05A5
</note>
  <anchor x="193" y="0" name="_bottomleft"/>
  <outline>
    <contour>
      <point x="50" y="-209" type="line"/>
      <point x="137" y="-209"/>
      <point x="186" y="-162"/>
      <point x="186" y="-83" type="curve"/>
      <point x="141" y="-83" type="line"/>
      <point x="141" y="-133"/>
      <point x="106" y="-165"/>
      <point x="50" y="-165" type="curve"/>
    </contour>
  </outline>
</glyph>
<glyph name="merkhakefulaleft-hb" format="2">
  <unicode hex="05A6"/>
  <note>
uni05A6
</note>
  <anchor x="236" y="0" name="_bottomleft"/>
  <outline>
    <contour>
      <point x="186" y="-209" type="line"/>
      <point x="273" y="-209"/>
      <point x="322" y="-161"/>
      <point x="322" y="-83" type="curve"/>
      <point x="276" y="-83" type="line"/>
      <point x="276" y="-133"/>
      <point x="243" y="-165"/>
      <point x="186" y="-165" type="curve"/>
    </contour>
    <contour>
      <point x="50" y="-209" type="line"/>
      <point x="136" y="-209"/>
      <point x="186" y="-162"/>
      <point x="186" y="-83" type="curve"/>
      <point x="140" y="-83" type="line"/>
      <point x="140" y="-133"/>
      <point x="107" y="-165"/>
      <point x="50" y="-165" type="curve"/>
    </contour>
  </outline>
</glyph>
<glyph name="dargaleft-hb" format="2">
  <unicode hex="05A7"/>
  <note>
uni05A7
</note>
  <anchor x="175" y="0" name="_bottomleft"/>
  <outline>
    <contour>
      <point x="63" y="-223" type="line"/>
      <point x="181" y="-201" type="line"/>
      <point x="110" y="-108" type="line"/>
      <point x="169" y="-98" type="line"/>
      <point x="169" y="-66" type="line"/>
      <point x="50" y="-88" type="line"/>
      <point x="121" y="-180" type="line"/>
      <point x="63" y="-189" type="line"/>
    </contour>
  </outline>
</glyph>
<glyph name="telishaqetana-hb" format="2">
  <unicode hex="05A9"/>
  <note>
uni05A9
</note>
  <anchor x="133" y="546" name="_topleft"/>
  <outline>
    <contour>
      <point x="210" y="650" type="line"/>
      <point x="242" y="682" type="line"/>
      <point x="207" y="718" type="line"/>
      <point x="214" y="729"/>
      <point x="219" y="744"/>
      <point x="219" y="759" type="curve" smooth="yes"/>
      <point x="219" y="806"/>
      <point x="181" y="843"/>
      <point x="134" y="843" type="curve" smooth="yes"/>
      <point x="87" y="843"/>
      <point x="50" y="806"/>
      <point x="50" y="759" type="curve" smooth="yes"/>
      <point x="50" y="712"/>
      <point x="87" y="675"/>
      <point x="134" y="675" type="curve" smooth="yes"/>
      <point x="150" y="675"/>
      <point x="163" y="678"/>
      <point x="176" y="684" type="curve"/>
    </contour>
    <contour>
      <point x="135" y="717" type="curve" smooth="yes"/>
      <point x="112" y="717"/>
      <point x="92" y="736"/>
      <point x="92" y="759" type="curve" smooth="yes"/>
      <point x="92" y="782"/>
      <point x="113" y="801"/>
      <point x="135" y="801" type="curve" smooth="yes"/>
      <point x="157" y="801"/>
      <point x="177" y="782"/>
      <point x="177" y="759" type="curve" smooth="yes"/>
      <point x="177" y="736"/>
      <point x="158" y="717"/>
    </contour>
  </outline>
</glyph>
<glyph name="yerahbenyomoleft-hb" format="2">
  <unicode hex="05AA"/>
  <note>
uni05AA
</note>
  <anchor x="129" y="0" name="_bottomleft"/>
  <outline>
    <contour>
      <point x="106" y="-221" type="line"/>
      <point x="150" y="-221" type="line"/>
      <point x="150" y="-183" type="line"/>
      <point x="188" y="-177"/>
      <point x="207" y="-153"/>
      <point x="207" y="-104" type="curve" smooth="yes"/>
      <point x="207" y="-83" type="line"/>
      <point x="165" y="-83" type="line"/>
      <point x="165" y="-104" type="line" smooth="yes"/>
      <point x="165" y="-133"/>
      <point x="155" y="-145"/>
      <point x="129" y="-145" type="curve" smooth="yes"/>
      <point x="101" y="-145"/>
      <point x="91" y="-133"/>
      <point x="91" y="-104" type="curve" smooth="yes"/>
      <point x="91" y="-83" type="line"/>
      <point x="50" y="-83" type="line"/>
      <point x="50" y="-104" type="line" smooth="yes"/>
      <point x="50" y="-153"/>
      <point x="70" y="-178"/>
      <point x="106" y="-183" type="curve"/>
    </contour>
  </outline>
</glyph>
<glyph name="ole-hb" format="2">
  <unicode hex="05AB"/>
  <note>
uni05AB
</note>
  <anchor x="118" y="546" name="_top"/>
  <outline>
    <contour>
      <point x="125" y="650" type="line"/>
      <point x="186" y="650" type="line"/>
      <point x="111" y="725" type="line"/>
      <point x="186" y="800" type="line"/>
      <point x="125" y="800" type="line"/>
      <point x="50" y="725" type="line"/>
    </contour>
  </outline>
</glyph>
<glyph name="zinor-hb" format="2">
  <unicode hex="05AE"/>
  <note>
uni05AE
</note>
  <anchor x="174" y="546" name="_top"/>
  <outline>
    <contour>
      <point x="95" y="650" type="curve"/>
      <point x="106" y="680" type="line"/>
      <point x="90" y="687"/>
      <point x="82" y="698"/>
      <point x="82" y="716" type="curve" smooth="yes"/>
      <point x="82" y="736"/>
      <point x="94" y="747"/>
      <point x="109" y="747" type="curve" smooth="yes"/>
      <point x="128" y="747"/>
      <point x="137" y="738"/>
      <point x="162" y="703" type="curve" smooth="yes"/>
      <point x="191" y="664"/>
      <point x="211" y="651"/>
      <point x="239" y="651" type="curve" smooth="yes"/>
      <point x="273" y="651"/>
      <point x="298" y="675"/>
      <point x="298" y="712" type="curve" smooth="yes"/>
      <point x="298" y="745"/>
      <point x="283" y="766"/>
      <point x="253" y="778" type="curve"/>
      <point x="242" y="747" type="line"/>
      <point x="258" y="741"/>
      <point x="266" y="730"/>
      <point x="266" y="712" type="curve" smooth="yes"/>
      <point x="266" y="691"/>
      <point x="254" y="681"/>
      <point x="239" y="681" type="curve" smooth="yes"/>
      <point x="221" y="681"/>
      <point x="208" y="692"/>
      <point x="186" y="724" type="curve" smooth="yes"/>
      <point x="156" y="764"/>
      <point x="137" y="777"/>
      <point x="111" y="777" type="curve" smooth="yes"/>
      <point x="75" y="777"/>
      <point x="50" y="752"/>
      <point x="50" y="716" type="curve" smooth="yes"/>
      <point x="50" y="682"/>
      <point x="65" y="660"/>
    </contour>
  </outline>
</glyph>
<glyph name="masoracircle-hb" format="2">
  <unicode hex="05AF"/>
  <note>
uni05AF
</note>
  <anchor x="133" y="546" name="_top"/>
  <outline>
    <contour>
      <point x="133" y="650" type="curve" smooth="yes"/>
      <point x="180" y="650"/>
      <point x="216" y="687"/>
      <point x="216" y="733" type="curve" smooth="yes"/>
      <point x="216" y="779"/>
      <point x="179" y="816"/>
      <point x="133" y="816" type="curve" smooth="yes"/>
      <point x="87" y="816"/>
      <point x="50" y="779"/>
      <point x="50" y="733" type="curve" smooth="yes"/>
      <point x="50" y="687"/>
      <point x="86" y="650"/>
    </contour>
    <contour>
      <point x="133" y="689" type="curve" smooth="yes"/>
      <point x="109" y="689"/>
      <point x="89" y="709"/>
      <point x="89" y="733" type="curve" smooth="yes"/>
      <point x="89" y="757"/>
      <point x="110" y="777"/>
      <point x="133" y="777" type="curve" smooth="yes"/>
      <point x="156" y="777"/>
      <point x="177" y="757"/>
      <point x="177" y="733" type="curve" smooth="yes"/>
      <point x="177" y="709"/>
      <point x="157" y="689"/>
    </contour>
  </outline>
</glyph>
<glyph name="sheva-hb" format="2">
  <unicode hex="05B0"/>
  <note>
sheva
</note>
  <anchor x="88" y="0" name="_bottom"/>
  <outline>
    <contour>
      <point x="87" y="-140" type="curve" smooth="yes"/>
      <point x="108" y="-140"/>
      <point x="125" y="-129"/>
      <point x="125" y="-105" type="curve" smooth="yes"/>
      <point x="125" y="-81"/>
      <point x="108" y="-69"/>
      <point x="87" y="-69" type="curve" smooth="yes"/>
      <point x="66" y="-69"/>
      <point x="50" y="-81"/>
      <point x="50" y="-105" type="curve" smooth="yes"/>
      <point x="50" y="-129"/>
      <point x="66" y="-140"/>
    </contour>
    <contour>
      <point x="87" y="-234" type="curve" smooth="yes"/>
      <point x="108" y="-234"/>
      <point x="125" y="-223"/>
      <point x="125" y="-198" type="curve" smooth="yes"/>
      <point x="125" y="-174"/>
      <point x="108" y="-164"/>
      <point x="87" y="-164" type="curve" smooth="yes"/>
      <point x="66" y="-164"/>
      <point x="50" y="-174"/>
      <point x="50" y="-198" type="curve" smooth="yes"/>
      <point x="50" y="-223"/>
      <point x="66" y="-234"/>
    </contour>
  </outline>
</glyph>
<glyph name="hatafsegol-hb" format="2">
  <unicode hex="05B1"/>
  <note>
hatafsegol
</note>
  <anchor x="191" y="0" name="_bottom"/>
  <outline>
    <contour>
      <point x="293" y="-234" type="curve" smooth="yes"/>
      <point x="313" y="-234"/>
      <point x="331" y="-223"/>
      <point x="331" y="-198" type="curve" smooth="yes"/>
      <point x="331" y="-174"/>
      <point x="313" y="-164"/>
      <point x="293" y="-164" type="curve" smooth="yes"/>
      <point x="272" y="-164"/>
      <point x="256" y="-174"/>
      <point x="256" y="-198" type="curve"/>
      <point x="256" y="-223"/>
      <point x="272" y="-234"/>
    </contour>
    <contour>
      <point x="141" y="-234" type="curve" smooth="yes"/>
      <point x="162" y="-234"/>
      <point x="179" y="-223"/>
      <point x="179" y="-198" type="curve" smooth="yes"/>
      <point x="179" y="-174"/>
      <point x="162" y="-164"/>
      <point x="141" y="-164" type="curve" smooth="yes"/>
      <point x="121" y="-164"/>
      <point x="104" y="-174"/>
      <point x="104" y="-198" type="curve"/>
      <point x="104" y="-223"/>
      <point x="121" y="-234"/>
    </contour>
    <contour>
      <point x="87" y="-140" type="curve" smooth="yes"/>
      <point x="108" y="-140"/>
      <point x="125" y="-129"/>
      <point x="125" y="-105" type="curve" smooth="yes"/>
      <point x="125" y="-81"/>
      <point x="108" y="-69"/>
      <point x="87" y="-69" type="curve" smooth="yes"/>
      <point x="67" y="-69"/>
      <point x="50" y="-81"/>
      <point x="50" y="-105" type="curve"/>
      <point x="50" y="-129"/>
      <point x="67" y="-140"/>
    </contour>
    <contour>
      <point x="195" y="-140" type="curve" smooth="yes"/>
      <point x="215" y="-140"/>
      <point x="232" y="-129"/>
      <point x="232" y="-105" type="curve" smooth="yes"/>
      <point x="232" y="-81"/>
      <point x="215" y="-69"/>
      <point x="195" y="-69" type="curve" smooth="yes"/>
      <point x="174" y="-69"/>
      <point x="158" y="-81"/>
      <point x="158" y="-105" type="curve"/>
      <point x="158" y="-129"/>
      <point x="174" y="-140"/>
    </contour>
    <contour>
      <point x="293" y="-140" type="curve" smooth="yes"/>
      <point x="313" y="-140"/>
      <point x="331" y="-129"/>
      <point x="331" y="-105" type="curve" smooth="yes"/>
      <point x="331" y="-81"/>
      <point x="313" y="-69"/>
      <point x="293" y="-69" type="curve" smooth="yes"/>
      <point x="272" y="-69"/>
      <point x="256" y="-81"/>
      <point x="256" y="-105" type="curve"/>
      <point x="256" y="-129"/>
      <point x="272" y="-140"/>
    </contour>
  </outline>
</glyph>
<glyph name="hatafqamats-hb" format="2">
  <unicode hex="05B3"/>
  <note>
hatafqamats
</note>
  <anchor x="186" y="0" name="_bottom"/>
  <outline>
    <contour>
      <point x="114" y="-223" type="line"/>
      <point x="160" y="-223" type="line"/>
      <point x="160" y="-128" type="line"/>
      <point x="224" y="-128" type="line"/>
      <point x="224" y="-82" type="line"/>
      <point x="50" y="-82" type="line"/>
      <point x="50" y="-128" type="line"/>
      <point x="114" y="-128" type="line"/>
    </contour>
    <contour>
      <point x="284" y="-234" type="curve" smooth="yes"/>
      <point x="305" y="-234"/>
      <point x="322" y="-223"/>
      <point x="322" y="-198" type="curve" smooth="yes"/>
      <point x="322" y="-174"/>
      <point x="305" y="-164"/>
      <point x="284" y="-164" type="curve" smooth="yes"/>
      <point x="263" y="-164"/>
      <point x="247" y="-174"/>
      <point x="247" y="-198" type="curve" smooth="yes"/>
      <point x="247" y="-223"/>
      <point x="263" y="-234"/>
    </contour>
    <contour>
      <point x="284" y="-140" type="curve" smooth="yes"/>
      <point x="305" y="-140"/>
      <point x="322" y="-129"/>
      <point x="322" y="-105" type="curve" smooth="yes"/>
      <point x="322" y="-81"/>
      <point x="305" y="-69"/>
      <point x="284" y="-69" type="curve" smooth="yes"/>
      <point x="263" y="-69"/>
      <point x="247" y="-81"/>
      <point x="247" y="-105" type="curve" smooth="yes"/>
      <point x="247" y="-129"/>
      <point x="263" y="-140"/>
    </contour>
  </outline>
</glyph>
<glyph name="hiriq-hb" format="2">
  <unicode hex="05B4"/>
  <note>
hiriq
</note>
  <anchor x="88" y="0" name="_bottom"/>
  <outline>
    <contour>
      <point x="87" y="-140" type="curve" smooth="yes"/>
      <point x="108" y="-140"/>
      <point x="125" y="-129"/>
      <point x="125" y="-105" type="curve" smooth="yes"/>
      <point x="125" y="-81"/>
      <point x="108" y="-69"/>
      <point x="87" y="-69" type="curve" smooth="yes"/>
      <point x="66" y="-69"/>
      <point x="50" y="-81"/>
      <point x="50" y="-105" type="curve" smooth="yes"/>
      <point x="50" y="-129"/>
      <point x="66" y="-140"/>
    </contour>
  </outline>
</glyph>
<glyph name="tsere-hb" format="2">
  <unicode hex="05B5"/>
  <note>
tsere
</note>
  <anchor x="142" y="0" name="_bottom"/>
  <outline>
    <contour>
      <point x="194" y="-142" type="curve" smooth="yes"/>
      <point x="215" y="-142"/>
      <point x="232" y="-130"/>
      <point x="232" y="-106" type="curve" smooth="yes"/>
      <point x="232" y="-82"/>
      <point x="215" y="-69"/>
      <point x="194" y="-69" type="curve" smooth="yes"/>
      <point x="173" y="-69"/>
      <point x="156" y="-82"/>
      <point x="156" y="-106" type="curve"/>
      <point x="156" y="-130"/>
      <point x="173" y="-142"/>
    </contour>
    <contour>
      <point x="88" y="-142" type="curve" smooth="yes"/>
      <point x="109" y="-142"/>
      <point x="126" y="-129"/>
      <point x="126" y="-106" type="curve" smooth="yes"/>
      <point x="126" y="-81"/>
      <point x="109" y="-69"/>
      <point x="88" y="-69" type="curve" smooth="yes"/>
      <point x="66" y="-69"/>
      <point x="50" y="-81"/>
      <point x="50" y="-106" type="curve"/>
      <point x="50" y="-129"/>
      <point x="66" y="-142"/>
    </contour>
  </outline>
</glyph>
<glyph name="segol-hb" format="2">
  <unicode hex="05B6"/>
  <note>
segol
</note>
  <anchor x="141" y="0" name="_bottom"/>
  <outline>
    <contour>
      <point x="194" y="-140" type="curve" smooth="yes"/>
      <point x="215" y="-140"/>
      <point x="232" y="-129"/>
      <point x="232" y="-105" type="curve" smooth="yes"/>
      <point x="232" y="-81"/>
      <point x="215" y="-69"/>
      <point x="194" y="-69" type="curve" smooth="yes"/>
      <point x="173" y="-69"/>
      <point x="157" y="-81"/>
      <point x="157" y="-105" type="curve"/>
      <point x="157" y="-129"/>
      <point x="173" y="-140"/>
    </contour>
    <contour>
      <point x="141" y="-234" type="curve" smooth="yes"/>
      <point x="162" y="-234"/>
      <point x="179" y="-223"/>
      <point x="179" y="-198" type="curve" smooth="yes"/>
      <point x="179" y="-174"/>
      <point x="162" y="-164"/>
      <point x="141" y="-164" type="curve" smooth="yes"/>
      <point x="120" y="-164"/>
      <point x="104" y="-174"/>
      <point x="104" y="-198" type="curve"/>
      <point x="104" y="-223"/>
      <point x="120" y="-234"/>
    </contour>
    <contour>
      <point x="87" y="-140" type="curve" smooth="yes"/>
      <point x="108" y="-140"/>
      <point x="125" y="-129"/>
      <point x="125" y="-105" type="curve" smooth="yes"/>
      <point x="125" y="-81"/>
      <point x="108" y="-69"/>
      <point x="87" y="-69" type="curve" smooth="yes"/>
      <point x="66" y="-69"/>
      <point x="50" y="-81"/>
      <point x="50" y="-105" type="curve"/>
      <point x="50" y="-129"/>
      <point x="66" y="-140"/>
    </contour>
  </outline>
</glyph>
<glyph name="patah-hb" format="2">
  <unicode hex="05B7"/>
  <note>
patah
</note>
  <anchor x="137" y="0" name="_bottom"/>
  <outline>
    <contour>
      <point x="50" y="-129" type="line"/>
      <point x="223" y="-129" type="line"/>
      <point x="223" y="-83" type="line"/>
      <point x="50" y="-83" type="line"/>
    </contour>
  </outline>
</glyph>
<glyph name="qubuts-hb" format="2">
  <unicode hex="05BB"/>
  <note>
qubuts
</note>
  <anchor x="168" y="0" name="_bottom"/>
  <outline>
    <contour>
      <point x="247" y="-234" type="curve" smooth="yes"/>
      <point x="268" y="-234"/>
      <point x="285" y="-223"/>
      <point x="285" y="-199" type="curve" smooth="yes"/>
      <point x="285" y="-174"/>
      <point x="268" y="-163"/>
      <point x="247" y="-163" type="curve" smooth="yes"/>
      <point x="226" y="-163"/>
      <point x="210" y="-174"/>
      <point x="210" y="-199" type="curve"/>
      <point x="210" y="-223"/>
      <point x="226" y="-234"/>
    </contour>
    <contour>
      <point x="87" y="-140" type="curve" smooth="yes"/>
      <point x="108" y="-140"/>
      <point x="125" y="-129"/>
      <point x="125" y="-105" type="curve" smooth="yes"/>
      <point x="125" y="-81"/>
      <point x="108" y="-69"/>
      <point x="87" y="-69" type="curve" smooth="yes"/>
      <point x="66" y="-69"/>
      <point x="50" y="-81"/>
      <point x="50" y="-105" type="curve"/>
      <point x="50" y="-129"/>
      <point x="66" y="-140"/>
    </contour>
    <contour>
      <point x="167" y="-187" type="curve" smooth="yes"/>
      <point x="188" y="-187"/>
      <point x="205" y="-176"/>
      <point x="205" y="-151" type="curve" smooth="yes"/>
      <point x="205" y="-128"/>
      <point x="188" y="-117"/>
      <point x="167" y="-117" type="curve" smooth="yes"/>
      <point x="146" y="-117"/>
      <point x="130" y="-128"/>
      <point x="130" y="-151" type="curve"/>
      <point x="130" y="-176"/>
      <point x="146" y="-187"/>
    </contour>
  </outline>
</glyph>
<glyph name="dagesh-hb" format="2">
  <unicode hex="05BC"/>
  <note>
dagesh
</note>
  <anchor x="88" y="303" name="_center"/>
  <outline>
    <contour>
      <point x="50" y="303" type="curve"/>
      <point x="50" y="279"/>
      <point x="66" y="267"/>
      <point x="88" y="267" type="curve" smooth="yes"/>
      <point x="109" y="267"/>
      <point x="126" y="279"/>
      <point x="126" y="303" type="curve" smooth="yes"/>
      <point x="126" y="327"/>
      <point x="109" y="339"/>
      <point x="88" y="339" type="curve" smooth="yes"/>
      <point x="66" y="339"/>
      <point x="50" y="327"/>
    </contour>
  </outline>
</glyph>
<glyph name="rafe-hb" format="2">
  <unicode hex="05BF"/>
  <note>
rafe
</note>
  <anchor x="140" y="546" name="_top"/>
  <outline>
    <contour>
      <point x="50" y="676" type="line"/>
      <point x="230" y="676" type="line"/>
      <point x="230" y="722" type="line"/>
      <point x="50" y="722" type="line"/>
    </contour>
  </outline>
</glyph>
<glyph name="paseq-hb" format="2">
  <advance width="413"/>
  <unicode hex="05C0"/>
  <note>
paseq
</note>
  <outline>
    <contour>
      <point x="149" y="768" type="line"/>
      <point x="149" y="-232" type="line"/>
      <point x="264" y="-232" type="line"/>
      <point x="264" y="768" type="line"/>
    </contour>
  </outline>
</glyph>
<glyph name="sindot-hb" format="2">
  <unicode hex="05C2"/>
  <note>
sindot
</note>
  <anchor x="88" y="546" name="_topleft"/>
  <outline>
    <contour>
      <point x="87" y="662" type="curve" smooth="yes"/>
      <point x="108" y="662"/>
      <point x="125" y="673"/>
      <point x="125" y="697" type="curve" smooth="yes"/>
      <point x="125" y="721"/>
      <point x="108" y="733"/>
      <point x="87" y="733" type="curve" smooth="yes"/>
      <point x="66" y="733"/>
      <point x="50" y="721"/>
      <point x="50" y="697" type="curve" smooth="yes"/>
      <point x="50" y="673"/>
      <point x="66" y="662"/>
    </contour>
  </outline>
</glyph>
<glyph name="upperdot-hb" format="2">
  <unicode hex="05C4"/>
  <note>
upper_dot
</note>
  <anchor x="88" y="546" name="_top"/>
  <outline>
    <contour>
      <point x="87" y="662" type="curve" smooth="yes"/>
      <point x="108" y="662"/>
      <point x="125" y="673"/>
      <point x="125" y="697" type="curve" smooth="yes"/>
      <point x="125" y="721"/>
      <point x="108" y="733"/>
      <point x="87" y="733" type="curve" smooth="yes"/>
      <point x="66" y="733"/>
      <point x="50" y="721"/>
      <point x="50" y="697" type="curve" smooth="yes"/>
      <point x="50" y="673"/>
      <point x="66" y="662"/>
    </contour>
  </outline>
</glyph>
<glyph name="nunhafukha-hb" format="2">
  <advance width="346"/>
  <unicode hex="05C6"/>
  <note>
uni05C6
</note>
  <outline>
    <contour>
      <point x="30" y="0" type="line"/>
      <point x="286" y="0" type="line"/>
      <point x="286" y="121" type="line"/>
      <point x="167" y="121" type="line"/>
      <point x="167" y="418" type="line" smooth="yes"/>
      <point x="167" y="461"/>
      <point x="179" y="482"/>
      <point x="211" y="482" type="curve" smooth="yes"/>
      <point x="241" y="482" type="line"/>
      <point x="241" y="602" type="line"/>
      <point x="163" y="602" type="line" smooth="yes"/>
      <point x="69" y="602"/>
      <point x="30" y="546"/>
      <point x="30" y="429" type="curve" smooth="yes"/>
    </contour>
  </outline>
</glyph>
<glyph name="qamatsqatan-hb" format="2">
  <unicode hex="05C7"/>
  <note>
qamatsqatan
</note>
  <anchor x="119" y="0" name="_bottom"/>
  <outline>
    <contour>
      <point x="96" y="-188" type="line"/>
      <point x="141" y="-188" type="line"/>
      <point x="141" y="-129" type="line"/>
      <point x="187" y="-129" type="line"/>
      <point x="187" y="-83" type="line"/>
      <point x="50" y="-83" type="line"/>
      <point x="50" y="-129" type="line"/>
      <point x="96" y="-129" type="line"/>
    </contour>
  </outline>
</glyph>
<glyph name="alef-hb" format="2">
  <advance width="482"/>
  <unicode hex="05D0"/>
  <anchor x="232" y="0" name="bottom"/>
  <anchor x="120" y="0" name="bottomleft"/>
  <anchor x="231" y="53" name="center"/>
  <anchor x="232" y="546" name="top"/>
  <anchor x="30" y="546" name="topleft"/>
  <outline>
    <contour>
      <point x="310" y="0" type="line"/>
      <point x="457" y="0" type="line"/>
      <point x="311" y="294" type="line"/>
      <point x="172" y="602" type="line"/>
      <point x="25" y="602" type="line"/>
      <point x="158" y="336" type="line"/>
    </contour>
    <contour>
      <point x="39" y="0" type="line"/>
      <point x="173" y="0" type="line"/>
      <point x="173" y="146" type="line" smooth="yes"/>
      <point x="173" y="235"/>
      <point x="171" y="263"/>
      <point x="218" y="307" type="curve"/>
      <point x="213" y="407" type="line"/>
      <point x="95" y="404"/>
      <point x="39" y="313"/>
      <point x="39" y="153" type="curve" smooth="yes"/>
    </contour>
    <contour>
      <point x="259" y="215" type="line"/>
      <point x="377" y="218"/>
      <point x="433" y="309"/>
      <point x="433" y="469" type="curve" smooth="yes"/>
      <point x="433" y="602" type="line"/>
      <point x="299" y="602" type="line"/>
      <point x="299" y="476" type="line" smooth="yes"/>
      <point x="299" y="387"/>
      <point x="299" y="357"/>
      <point x="254" y="315" type="curve"/>
    </contour>
  </outline>
</glyph>
<glyph name="bet-hb" format="2">
  <advance width="427"/>
  <unicode hex="05D1"/>
  <anchor x="219" y="0" name="bottom"/>
  <anchor x="-5" y="0" name="bottomleft"/>
  <anchor x="118" y="303" name="center"/>
  <anchor x="166" y="546" name="top"/>
  <anchor x="15" y="546" name="topleft"/>
  <outline>
    <contour>
      <point x="220" y="0" type="line"/>
      <point x="357" y="0" type="line"/>
      <point x="357" y="407" type="line" smooth="yes"/>
      <point x="357" y="536"/>
      <point x="300" y="602"/>
      <point x="194" y="602" type="curve" smooth="yes"/>
      <point x="15" y="602" type="line"/>
      <point x="15" y="482" type="line"/>
      <point x="160" y="482" type="line" smooth="yes"/>
      <point x="202" y="482"/>
      <point x="220" y="453"/>
      <point x="220" y="393" type="curve" smooth="yes"/>
    </contour>
    <contour>
      <point x="15" y="0" type="line"/>
      <point x="422" y="0" type="line"/>
      <point x="422" y="120" type="line"/>
      <point x="15" y="120" type="line"/>
    </contour>
  </outline>
</glyph>
<glyph name="gimel-hb" format="2">
  <advance width="327"/>
  <unicode hex="05D2"/>
  <anchor x="189" y="0" name="bottom"/>
  <anchor x="14" y="0" name="bottomleft"/>
  <anchor x="43" y="332" name="center"/>
  <anchor x="151" y="546" name="top"/>
  <anchor x="59" y="546" name="topleft"/>
  <outline>
    <contour>
      <point x="10" y="-7" type="line"/>
      <point x="76" y="15"/>
      <point x="132" y="87"/>
      <point x="152" y="129" type="curve"/>
      <point x="154" y="129" type="line"/>
      <point x="172" y="0" type="line"/>
      <point x="292" y="0" type="line"/>
      <point x="269" y="199" type="line"/>
      <point x="269" y="429" type="line" smooth="yes"/>
      <point x="269" y="546"/>
      <point x="231" y="602"/>
      <point x="137" y="602" type="curve" smooth="yes"/>
      <point x="59" y="602" type="line"/>
      <point x="59" y="482" type="line"/>
      <point x="89" y="482" type="line" smooth="yes"/>
      <point x="121" y="482"/>
      <point x="133" y="461"/>
      <point x="133" y="418" type="curve" smooth="yes"/>
      <point x="133" y="312" type="line" smooth="yes"/>
      <point x="133" y="267"/>
      <point x="119" y="229"/>
      <point x="98" y="198" type="curve" smooth="yes"/>
      <point x="75" y="165"/>
      <point x="44" y="139"/>
      <point x="10" y="120" type="curve"/>
    </contour>
  </outline>
</glyph>
<glyph name="dalet-hb" format="2">
  <advance width="414"/>
  <unicode hex="05D3"/>
  <anchor x="258" y="0" name="bottom"/>
  <anchor x="-1" y="0" name="bottomleft"/>
  <anchor x="100" y="303" name="center"/>
  <anchor x="207" y="546" name="top"/>
  <anchor x="10" y="546" name="topleft"/>
  <outline>
    <contour>
      <point x="189" y="0" type="line"/>
      <point x="326" y="0" type="line"/>
      <point x="326" y="548" type="line"/>
      <point x="189" y="548" type="line"/>
    </contour>
    <contour>
      <point x="10" y="482" type="line"/>
      <point x="404" y="482" type="line"/>
      <point x="404" y="602" type="line"/>
      <point x="10" y="602" type="line"/>
    </contour>
  </outline>
</glyph>
<glyph name="he-hb" format="2">
  <advance width="518"/>
  <unicode hex="05D4"/>
  <anchor x="261" y="0" name="bottom"/>
  <anchor x="60" y="0" name="bottomleft"/>
  <anchor x="261" y="303" name="center"/>
  <anchor x="261" y="546" name="top"/>
  <anchor x="60" y="546" name="topleft"/>
  <outline>
    <contour>
      <point x="326" y="0" type="line"/>
      <point x="463" y="0" type="line"/>
      <point x="463" y="407" type="line" smooth="yes"/>
      <point x="463" y="536"/>
      <point x="406" y="602"/>
      <point x="300" y="602" type="curve" smooth="yes"/>
      <point x="60" y="602" type="line"/>
      <point x="60" y="482" type="line"/>
      <point x="266" y="482" type="line" smooth="yes"/>
      <point x="308" y="482"/>
      <point x="326" y="453"/>
      <point x="326" y="393" type="curve" smooth="yes"/>
    </contour>
    <contour>
      <point x="60" y="0" type="line"/>
      <point x="197" y="0" type="line"/>
      <point x="197" y="350" type="line"/>
      <point x="60" y="350" type="line"/>
    </contour>
  </outline>
</glyph>
<glyph name="vav-hb" format="2">
  <advance width="257"/>
  <unicode hex="05D5"/>
  <anchor x="128" y="0" name="bottom"/>
  <anchor x="-47" y="0" name="bottomleft"/>
  <anchor x="-2" y="303" name="center"/>
  <anchor x="128" y="546" name="top"/>
  <anchor x="128" y="546" name="topleft"/>
  <outline>
    <contour>
      <point x="60" y="0" type="line"/>
      <point x="197" y="0" type="line"/>
      <point x="197" y="602" type="line"/>
      <point x="60" y="602" type="line"/>
    </contour>
  </outline>
</glyph>
<glyph name="zayin-hb" format="2">
  <advance width="282"/>
  <unicode hex="05D6"/>
  <anchor x="148" y="0" name="bottom"/>
  <anchor x="25" y="0" name="bottomleft"/>
  <anchor x="25" y="303" name="center"/>
  <anchor x="154" y="546" name="top"/>
  <anchor x="36" y="546" name="topleft"/>
  <outline>
    <contour>
      <point x="79" y="0" type="line"/>
      <point x="216" y="0" type="line"/>
      <point x="216" y="354" type="line" smooth="yes"/>
      <point x="216" y="451"/>
      <point x="240" y="484"/>
      <point x="272" y="510" type="curve"/>
      <point x="272" y="602" type="line"/>
      <point x="35" y="602" type="line"/>
      <point x="35" y="482" type="line"/>
      <point x="155" y="482" type="line"/>
      <point x="155" y="479" type="line"/>
      <point x="104" y="440"/>
      <point x="79" y="385"/>
      <point x="79" y="313" type="curve" smooth="yes"/>
    </contour>
  </outline>
</glyph>
<glyph name="het-hb" format="2">
  <advance width="528"/>
  <unicode hex="05D7"/>
  <anchor x="267" y="0" name="bottom"/>
  <anchor x="-10" y="0" name="bottomleft"/>
  <anchor x="267" y="303" name="center"/>
  <anchor x="267" y="546" name="top"/>
  <anchor x="60" y="546" name="topleft"/>
  <outline>
    <contour>
      <point x="310" y="602" type="curve" smooth="yes"/>
      <point x="60" y="602" type="line"/>
      <point x="60" y="0" type="line"/>
      <point x="197" y="0" type="line"/>
      <point x="197" y="482" type="line"/>
      <point x="276" y="482" type="line" smooth="yes"/>
      <point x="318" y="482"/>
      <point x="336" y="453"/>
      <point x="336" y="393" type="curve" smooth="yes"/>
      <point x="336" y="0" type="line"/>
      <point x="473" y="0" type="line"/>
      <point x="473" y="407" type="line" smooth="yes"/>
      <point x="473" y="536"/>
      <point x="416" y="602"/>
    </contour>
  </outline>
</glyph>
<glyph name="tet-hb" format="2">
  <advance width="519"/>
  <unicode hex="05D8"/>
  <anchor x="260" y="0" name="bottom"/>
  <anchor x="-15" y="0" name="bottomleft"/>
  <anchor x="260" y="303" name="center"/>
  <anchor x="260" y="546" name="top"/>
  <anchor x="35" y="546" name="topleft"/>
  <outline>
    <contour>
      <point x="262" y="-12" type="curve" smooth="yes"/>
      <point x="423" y="-12"/>
      <point x="484" y="134"/>
      <point x="484" y="339" type="curve" smooth="yes"/>
      <point x="484" y="515"/>
      <point x="439" y="614"/>
      <point x="327" y="614" type="curve" smooth="yes"/>
      <point x="299" y="614"/>
      <point x="267" y="608"/>
      <point x="249" y="602" type="curve"/>
      <point x="249" y="486" type="line"/>
      <point x="267" y="493"/>
      <point x="284" y="496"/>
      <point x="294" y="496" type="curve" smooth="yes"/>
      <point x="337" y="496"/>
      <point x="347" y="447"/>
      <point x="347" y="315" type="curve" smooth="yes"/>
      <point x="347" y="184"/>
      <point x="337" y="109"/>
      <point x="261" y="109" type="curve" smooth="yes"/>
      <point x="202" y="109"/>
      <point x="172" y="153"/>
      <point x="172" y="296" type="curve" smooth="yes"/>
      <point x="172" y="602" type="line"/>
      <point x="35" y="602" type="line"/>
      <point x="35" y="297" type="line" smooth="yes"/>
      <point x="35" y="128"/>
      <point x="105" y="-12"/>
    </contour>
  </outline>
</glyph>
<glyph name="yod-hb" format="2">
  <advance width="232"/>
  <unicode hex="05D9"/>
  <anchor x="125" y="0" name="bottom"/>
  <anchor x="-20" y="0" name="bottomleft"/>
  <anchor x="-20" y="421" name="center"/>
  <anchor x="119" y="546" name="top"/>
  <anchor x="50" y="546" name="topleft"/>
  <outline>
    <contour>
      <point x="50" y="213" type="line"/>
      <point x="119" y="213" type="line"/>
      <point x="187" y="332" type="line"/>
      <point x="187" y="602" type="line"/>
      <point x="50" y="602" type="line"/>
    </contour>
  </outline>
</glyph>
<glyph name="finalkaf-hb" format="2">
  <advance width="411"/>
  <unicode hex="05DA"/>
  <anchor x="83" y="240" name="bottom"/>
  <anchor x="1" y="0" name="bottomleft"/>
  <anchor x="127" y="303" name="center"/>
  <anchor x="150" y="546" name="top"/>
  <anchor x="15" y="546" name="topleft"/>
  <outline>
    <contour>
      <point x="239" y="-240" type="line"/>
      <point x="376" y="-240" type="line"/>
      <point x="376" y="303" type="line" smooth="yes"/>
      <point x="376" y="497"/>
      <point x="294" y="602"/>
      <point x="158" y="602" type="curve" smooth="yes"/>
      <point x="15" y="602" type="line"/>
      <point x="15" y="482" type="line"/>
      <point x="157" y="482" type="line" smooth="yes"/>
      <point x="215" y="482"/>
      <point x="239" y="426"/>
      <point x="239" y="302" type="curve" smooth="yes"/>
    </contour>
  </outline>
</glyph>
<glyph name="kaf-hb" format="2">
  <advance width="416"/>
  <unicode hex="05DB"/>
  <anchor x="223" y="0" name="bottom"/>
  <anchor x="38" y="0" name="bottomleft"/>
  <anchor x="127" y="303" name="center"/>
  <anchor x="127" y="546" name="top"/>
  <anchor x="15" y="546" name="topleft"/>
  <outline>
    <contour>
      <point x="15" y="0" type="line"/>
      <point x="158" y="0" type="line" smooth="yes"/>
      <point x="317" y="0"/>
      <point x="381" y="137"/>
      <point x="381" y="303" type="curve" smooth="yes"/>
      <point x="381" y="497"/>
      <point x="294" y="602"/>
      <point x="158" y="602" type="curve" smooth="yes"/>
      <point x="15" y="602" type="line"/>
      <point x="15" y="482" type="line"/>
      <point x="157" y="482" type="line" smooth="yes"/>
      <point x="215" y="482"/>
      <point x="239" y="426"/>
      <point x="239" y="302" type="curve" smooth="yes"/>
      <point x="239" y="176"/>
      <point x="214" y="120"/>
      <point x="157" y="120" type="curve" smooth="yes"/>
      <point x="15" y="120" type="line"/>
    </contour>
  </outline>
</glyph>
<glyph name="lamed-hb" format="2">
  <advance width="407"/>
  <unicode hex="05DC"/>
  <anchor x="171" y="0" name="bottom"/>
  <anchor x="139" y="0" name="bottomleft"/>
  <anchor x="91" y="303" name="center"/>
  <anchor x="272" y="546" name="top"/>
  <anchor x="-37" y="546" name="topleft"/>
  <outline>
    <contour>
      <point x="152" y="602" type="line"/>
      <point x="152" y="760" type="line"/>
      <point x="15" y="760" type="line"/>
      <point x="15" y="482" type="line"/>
      <point x="244" y="482" type="line"/>
      <point x="102" y="0" type="line"/>
      <point x="239" y="0" type="line"/>
      <point x="392" y="513" type="line"/>
      <point x="392" y="602" type="line"/>
    </contour>
  </outline>
</glyph>
<glyph name="finalmem-hb" format="2">
  <advance width="513"/>
  <unicode hex="05DD"/>
  <anchor x="252" y="0" name="bottom"/>
  <anchor x="5" y="0" name="bottomleft"/>
  <anchor x="252" y="301" name="center"/>
  <anchor x="252" y="546" name="top"/>
  <anchor x="45" y="546" name="topleft"/>
  <outline>
    <contour>
      <point x="45" y="0" type="line"/>
      <point x="458" y="0" type="line"/>
      <point x="458" y="407" type="line" smooth="yes"/>
      <point x="458" y="536"/>
      <point x="401" y="602"/>
      <point x="295" y="602" type="curve" smooth="yes"/>
      <point x="45" y="602" type="line"/>
    </contour>
    <contour>
      <point x="182" y="120" type="line"/>
      <point x="182" y="482" type="line"/>
      <point x="261" y="482" type="line" smooth="yes"/>
      <point x="303" y="482"/>
      <point x="321" y="453"/>
      <point x="321" y="393" type="curve" smooth="yes"/>
      <point x="321" y="120" type="line"/>
    </contour>
  </outline>
</glyph>
<glyph name="mem-hb" format="2">
  <advance width="520"/>
  <unicode hex="05DE"/>
  <anchor x="253" y="0" name="bottom"/>
  <anchor x="87" y="0" name="bottomleft"/>
  <anchor x="271" y="303" name="center"/>
  <anchor x="333" y="546" name="top"/>
  <anchor x="37" y="546" name="topleft"/>
  <outline>
    <contour>
      <point x="334" y="612" type="curve" smooth="yes"/>
      <point x="257" y="612"/>
      <point x="233" y="571"/>
      <point x="203" y="516" type="curve"/>
      <point x="197" y="516" type="line"/>
      <point x="179" y="602" type="line"/>
      <point x="42" y="602" type="line"/>
      <point x="86" y="389" type="line"/>
      <point x="40" y="0" type="line"/>
      <point x="177" y="0" type="line"/>
      <point x="213" y="304" type="line" smooth="yes"/>
      <point x="231" y="458"/>
      <point x="246" y="485"/>
      <point x="281" y="485" type="curve" smooth="yes"/>
      <point x="317" y="485"/>
      <point x="328" y="456"/>
      <point x="328" y="366" type="curve" smooth="yes"/>
      <point x="328" y="120" type="line"/>
      <point x="258" y="120" type="line"/>
      <point x="258" y="0" type="line"/>
      <point x="465" y="0" type="line"/>
      <point x="465" y="380" type="line" smooth="yes"/>
      <point x="465" y="522"/>
      <point x="448" y="612"/>
    </contour>
  </outline>
</glyph>
<glyph name="finalnun-hb" format="2">
  <advance width="276"/>
  <unicode hex="05DF"/>
  <anchor x="-30" y="0" name="bottomleft"/>
  <anchor x="35" y="303" name="center"/>
  <anchor x="102" y="546" name="top"/>
  <anchor x="-25" y="546" name="topleft"/>
  <outline>
    <contour>
      <point x="84" y="-240" type="line"/>
      <point x="221" y="-240" type="line"/>
      <point x="221" y="429" type="line" smooth="yes"/>
      <point x="221" y="546"/>
      <point x="182" y="602"/>
      <point x="88" y="602" type="curve" smooth="yes"/>
      <point x="10" y="602" type="line"/>
      <point x="10" y="482" type="line"/>
      <point x="40" y="482" type="line" smooth="yes"/>
      <point x="72" y="482"/>
      <point x="84" y="461"/>
      <point x="84" y="418" type="curve" smooth="yes"/>
    </contour>
  </outline>
</glyph>
<glyph name="nun-hb" format="2">
  <advance width="336"/>
  <unicode hex="05E0"/>
  <anchor x="153" y="0" name="bottom"/>
  <anchor x="7" y="0" name="bottomleft"/>
  <anchor x="85" y="303" name="center"/>
  <anchor x="157" y="546" name="top"/>
  <anchor x="70" y="546" name="topleft"/>
  <outline>
    <contour>
      <point x="25" y="0" type="line"/>
      <point x="281" y="0" type="line"/>
      <point x="281" y="429" type="line" smooth="yes"/>
      <point x="281" y="546"/>
      <point x="242" y="602"/>
      <point x="148" y="602" type="curve" smooth="yes"/>
      <point x="70" y="602" type="line"/>
      <point x="70" y="482" type="line"/>
      <point x="100" y="482" type="line" smooth="yes"/>
      <point x="132" y="482"/>
      <point x="144" y="461"/>
      <point x="144" y="418" type="curve" smooth="yes"/>
      <point x="144" y="121" type="line"/>
      <point x="25" y="121" type="line"/>
    </contour>
  </outline>
</glyph>
<glyph name="samekh-hb" format="2">
  <advance width="527"/>
  <unicode hex="05E1"/>
  <anchor x="268" y="0" name="bottom"/>
  <anchor x="-5" y="0" name="bottomleft"/>
  <anchor x="268" y="303" name="center"/>
  <anchor x="268" y="546" name="top"/>
  <anchor x="20" y="546" name="topleft"/>
  <outline>
    <contour>
      <point x="270" y="-12" type="curve" smooth="yes"/>
      <point x="429" y="-12"/>
      <point x="492" y="133"/>
      <point x="492" y="299" type="curve" smooth="yes"/>
      <point x="492" y="493"/>
      <point x="405" y="602"/>
      <point x="269" y="602" type="curve" smooth="yes"/>
      <point x="20" y="602" type="line"/>
      <point x="20" y="482" type="line"/>
      <point x="71" y="482" type="line"/>
      <point x="56" y="427"/>
      <point x="43" y="360"/>
      <point x="43" y="290" type="curve" smooth="yes"/>
      <point x="43" y="131"/>
      <point x="113" y="-12"/>
    </contour>
    <contour>
      <point x="269" y="109" type="curve" smooth="yes"/>
      <point x="211" y="109"/>
      <point x="185" y="172"/>
      <point x="185" y="291" type="curve" smooth="yes"/>
      <point x="185" y="375"/>
      <point x="198" y="448"/>
      <point x="207" y="482" type="curve"/>
      <point x="268" y="482" type="line" smooth="yes"/>
      <point x="326" y="482"/>
      <point x="350" y="422"/>
      <point x="350" y="297" type="curve" smooth="yes"/>
      <point x="350" y="172"/>
      <point x="326" y="109"/>
    </contour>
  </outline>
</glyph>
<glyph name="ayin-hb" format="2">
  <advance width="481"/>
  <unicode hex="05E2"/>
  <anchor x="214" y="0" name="bottom"/>
  <anchor x="-2" y="0" name="bottomleft"/>
  <anchor x="264" y="446" name="center"/>
  <anchor x="260" y="546" name="top"/>
  <anchor x="51" y="546" name="topleft"/>
  <outline>
    <contour>
      <point x="15" y="0" type="line"/>
      <point x="159" y="0" type="line" smooth="yes"/>
      <point x="384" y="0"/>
      <point x="437" y="107"/>
      <point x="451" y="344" type="curve" smooth="yes"/>
      <point x="466" y="602" type="line"/>
      <point x="329" y="602" type="line"/>
      <point x="315" y="376" type="line" smooth="yes"/>
      <point x="303" y="188"/>
      <point x="295" y="120"/>
      <point x="149" y="120" type="curve" smooth="yes"/>
      <point x="15" y="120" type="line"/>
    </contour>
    <contour>
      <point x="105" y="67" type="line"/>
      <point x="239" y="67" type="line"/>
      <point x="191" y="602" type="line"/>
      <point x="54" y="602" type="line"/>
    </contour>
  </outline>
</glyph>
<glyph name="finalpe-hb" format="2">
  <advance width="508"/>
  <unicode hex="05E3"/>
  <anchor x="25" y="0" name="bottomleft"/>
  <anchor x="276" y="282" name="center"/>
  <anchor x="224" y="546" name="top"/>
  <anchor x="35" y="546" name="topleft"/>
  <outline>
    <contour>
      <point x="336" y="-240" type="line"/>
      <point x="473" y="-240" type="line"/>
      <point x="473" y="303" type="line" smooth="yes"/>
      <point x="473" y="497"/>
      <point x="386" y="602"/>
      <point x="250" y="602" type="curve" smooth="yes"/>
      <point x="107" y="602" type="line"/>
      <point x="107" y="482" type="line"/>
      <point x="254" y="482" type="line" smooth="yes"/>
      <point x="312" y="482"/>
      <point x="336" y="426"/>
      <point x="336" y="302" type="curve" smooth="yes"/>
    </contour>
    <contour>
      <point x="169" y="219" type="curve" smooth="yes"/>
      <point x="184" y="219"/>
      <point x="203" y="220"/>
      <point x="216" y="221" type="curve"/>
      <point x="216" y="341" type="line"/>
      <point x="210" y="341"/>
      <point x="200" y="340"/>
      <point x="194" y="340" type="curve" smooth="yes"/>
      <point x="170" y="340"/>
      <point x="170" y="355"/>
      <point x="170" y="437" type="curve" smooth="yes"/>
      <point x="170" y="602" type="line"/>
      <point x="35" y="602" type="line"/>
      <point x="35" y="429" type="line" smooth="yes"/>
      <point x="35" y="284"/>
      <point x="44" y="219"/>
    </contour>
  </outline>
</glyph>
<glyph name="pe-hb" format="2">
  <advance width="508"/>
  <unicode hex="05E4"/>
  <anchor x="232" y="0" name="bottom"/>
  <anchor x="35" y="0" name="bottomleft"/>
  <anchor x="274" y="282" name="center"/>
  <anchor x="213" y="546" name="top"/>
  <anchor x="35" y="546" name="topleft"/>
  <outline>
    <contour>
      <point x="35" y="0" type="line"/>
      <point x="250" y="0" type="line" smooth="yes"/>
      <point x="409" y="0"/>
      <point x="473" y="137"/>
      <point x="473" y="303" type="curve" smooth="yes"/>
      <point x="473" y="497"/>
      <point x="386" y="602"/>
      <point x="250" y="602" type="curve" smooth="yes"/>
      <point x="107" y="602" type="line"/>
      <point x="107" y="482" type="line"/>
      <point x="249" y="482" type="line" smooth="yes"/>
      <point x="307" y="482"/>
      <point x="331" y="426"/>
      <point x="331" y="302" type="curve" smooth="yes"/>
      <point x="331" y="176"/>
      <point x="306" y="120"/>
      <point x="249" y="120" type="curve" smooth="yes"/>
      <point x="35" y="120" type="line"/>
    </contour>
    <contour>
      <point x="169" y="219" type="curve" smooth="yes"/>
      <point x="184" y="219"/>
      <point x="203" y="220"/>
      <point x="216" y="221" type="curve"/>
      <point x="216" y="341" type="line"/>
      <point x="210" y="341"/>
      <point x="200" y="340"/>
      <point x="194" y="340" type="curve" smooth="yes"/>
      <point x="170" y="340"/>
      <point x="170" y="356"/>
      <point x="170" y="437" type="curve" smooth="yes"/>
      <point x="170" y="602" type="line"/>
      <point x="35" y="602" type="line"/>
      <point x="35" y="429" type="line" smooth="yes"/>
      <point x="35" y="284"/>
      <point x="44" y="219"/>
    </contour>
  </outline>
</glyph>
<glyph name="finaltsadi-hb" format="2">
  <advance width="412"/>
  <unicode hex="05E5"/>
  <anchor x="-1" y="0" name="bottomleft"/>
  <anchor x="214" y="483" name="center"/>
  <anchor x="206" y="546" name="top"/>
  <anchor x="8" y="546" name="topleft"/>
  <outline>
    <contour>
      <point x="56" y="-240" type="line"/>
      <point x="193" y="-240" type="line"/>
      <point x="193" y="214" type="line"/>
      <point x="147" y="602" type="line"/>
      <point x="10" y="602" type="line"/>
      <point x="56" y="219" type="line"/>
    </contour>
    <contour>
      <point x="100" y="124" type="line"/>
      <point x="172" y="143" type="line" smooth="yes"/>
      <point x="307" y="179"/>
      <point x="384" y="228"/>
      <point x="392" y="398" type="curve" smooth="yes"/>
      <point x="402" y="602" type="line"/>
      <point x="265" y="602" type="line"/>
      <point x="258" y="426" type="line" smooth="yes"/>
      <point x="253" y="309"/>
      <point x="229" y="277"/>
      <point x="167" y="259" type="curve" smooth="yes"/>
      <point x="100" y="240" type="line"/>
    </contour>
  </outline>
</glyph>
<glyph name="tsadi-hb" format="2">
  <advance width="458"/>
  <unicode hex="05E6"/>
  <anchor x="223" y="0" name="bottom"/>
  <anchor x="5" y="0" name="bottomleft"/>
  <anchor x="95" y="273" name="center"/>
  <anchor x="310" y="546" name="top"/>
  <anchor x="25" y="546" name="topleft"/>
  <outline>
    <contour>
      <point x="310" y="0" type="line"/>
      <point x="410" y="95" type="line"/>
      <point x="313" y="294" type="line"/>
      <point x="172" y="602" type="line"/>
      <point x="25" y="602" type="line"/>
    </contour>
    <contour>
      <point x="35" y="0" type="line"/>
      <point x="410" y="0" type="line"/>
      <point x="410" y="95" type="line"/>
      <point x="367" y="121" type="line"/>
      <point x="35" y="121" type="line"/>
    </contour>
    <contour>
      <point x="259" y="225" type="line"/>
      <point x="377" y="228"/>
      <point x="433" y="319"/>
      <point x="433" y="479" type="curve" smooth="yes"/>
      <point x="433" y="602" type="line"/>
      <point x="299" y="602" type="line"/>
      <point x="299" y="486" type="line" smooth="yes"/>
      <point x="299" y="381"/>
      <point x="299" y="368"/>
      <point x="254" y="325" type="curve"/>
    </contour>
  </outline>
</glyph>
<glyph name="qof-hb" format="2">
  <advance width="502"/>
  <unicode hex="05E7"/>
  <anchor x="354" y="0" name="bottom"/>
  <anchor x="20" y="0" name="bottomleft"/>
  <anchor x="247" y="303" name="center"/>
  <anchor x="274" y="546" name="top"/>
  <anchor x="61" y="546" name="topleft"/>
  <outline>
    <contour>
      <point x="237" y="0" type="line"/>
      <point x="374" y="0" type="line"/>
      <point x="487" y="513" type="line"/>
      <point x="487" y="602" type="line"/>
      <point x="60" y="602" type="line"/>
      <point x="60" y="482" type="line"/>
      <point x="343" y="482" type="line"/>
    </contour>
    <contour>
      <point x="60" y="-240" type="line"/>
      <point x="197" y="-240" type="line"/>
      <point x="197" y="372" type="line"/>
      <point x="60" y="372" type="line"/>
    </contour>
  </outline>
</glyph>
<glyph name="resh-hb" format="2">
  <advance width="468"/>
  <unicode hex="05E8"/>
  <anchor x="345" y="0" name="bottom"/>
  <anchor x="0" y="0" name="bottomleft"/>
  <anchor x="143" y="303" name="center"/>
  <anchor x="212" y="546" name="top"/>
  <anchor x="10" y="546" name="topleft"/>
  <outline>
    <contour>
      <point x="276" y="0" type="line"/>
      <point x="413" y="0" type="line"/>
      <point x="413" y="407" type="line" smooth="yes"/>
      <point x="413" y="536"/>
      <point x="356" y="602"/>
      <point x="250" y="602" type="curve" smooth="yes"/>
      <point x="10" y="602" type="line"/>
      <point x="10" y="482" type="line"/>
      <point x="216" y="482" type="line" smooth="yes"/>
      <point x="258" y="482"/>
      <point x="276" y="453"/>
      <point x="276" y="393" type="curve" smooth="yes"/>
    </contour>
  </outline>
</glyph>
<glyph name="shin-hb" format="2">
  <advance width="567"/>
  <unicode hex="05E9"/>
  <anchor x="245" y="0" name="bottom"/>
  <anchor x="71" y="0" name="bottomleft"/>
  <anchor x="310" y="214" name="center"/>
  <anchor x="298" y="546" name="top"/>
  <anchor x="83" y="546" name="topleft"/>
  <anchor x="490" y="546" name="topright"/>
  <outline>
    <contour>
      <point x="71" y="0" type="line"/>
      <point x="220" y="0" type="line" smooth="yes"/>
      <point x="445" y="0"/>
      <point x="528" y="107"/>
      <point x="542" y="344" type="curve" smooth="yes"/>
      <point x="557" y="602" type="line"/>
      <point x="422" y="602" type="line"/>
      <point x="408" y="376" type="line" smooth="yes"/>
      <point x="396" y="188"/>
      <point x="371" y="120"/>
      <point x="205" y="120" type="curve" smooth="yes"/>
      <point x="195" y="120" type="line"/>
      <point x="150" y="602" type="line"/>
      <point x="15" y="602" type="line"/>
    </contour>
    <contour>
      <point x="73" y="184" type="line"/>
      <point x="143" y="203" type="line" smooth="yes"/>
      <point x="278" y="239"/>
      <point x="343" y="288"/>
      <point x="355" y="458" type="curve" smooth="yes"/>
      <point x="365" y="602" type="line"/>
      <point x="230" y="602" type="line"/>
      <point x="223" y="486" type="line" smooth="yes"/>
      <point x="216" y="369"/>
      <point x="202" y="337"/>
      <point x="140" y="319" type="curve" smooth="yes"/>
      <point x="73" y="300" type="line"/>
    </contour>
  </outline>
</glyph>
<glyph name="tav-hb" format="2">
  <advance width="551"/>
  <unicode hex="05EA"/>
  <anchor x="300" y="0" name="bottom"/>
  <anchor x="7" y="0" name="bottomleft"/>
  <anchor x="300" y="303" name="center"/>
  <anchor x="272" y="546" name="top"/>
  <anchor x="35" y="546" name="topleft"/>
  <outline>
    <contour>
      <point x="359" y="0" type="line"/>
      <point x="496" y="0" type="line"/>
      <point x="496" y="407" type="line" smooth="yes"/>
      <point x="496" y="536"/>
      <point x="439" y="602"/>
      <point x="333" y="602" type="curve" smooth="yes"/>
      <point x="35" y="602" type="line"/>
      <point x="35" y="482" type="line"/>
      <point x="299" y="482" type="line" smooth="yes"/>
      <point x="341" y="482"/>
      <point x="359" y="453"/>
      <point x="359" y="393" type="curve" smooth="yes"/>
    </contour>
    <contour>
      <point x="35" y="0" type="line"/>
      <point x="107" y="0" type="line" smooth="yes"/>
      <point x="201" y="0"/>
      <point x="240" y="56"/>
      <point x="240" y="173" type="curve" smooth="yes"/>
      <point x="240" y="602" type="line"/>
      <point x="103" y="602" type="line"/>
      <point x="103" y="184" type="line" smooth="yes"/>
      <point x="103" y="141"/>
      <point x="91" y="120"/>
      <point x="59" y="120" type="curve" smooth="yes"/>
      <point x="35" y="120" type="line"/>
    </contour>
  </outline>
</glyph>
<glyph name="vavvav-hb" format="2">
  <advance width="630"/>
  <unicode hex="05F0"/>
  <note>
vavvav
</note>
  <anchor x="170" y="0" name="bottom"/>
  <anchor x="25" y="0" name="bottomleft"/>
  <anchor x="305" y="0" name="caret_1"/>
  <anchor x="11" y="303" name="center"/>
  <anchor x="170" y="546" name="top"/>
  <anchor x="128" y="546" name="topleft"/>
  <outline>
    <contour>
      <point x="385" y="0" type="line"/>
      <point x="535" y="0" type="line"/>
      <point x="535" y="602" type="line"/>
      <point x="385" y="602" type="line"/>
    </contour>
    <contour>
      <point x="95" y="0" type="line"/>
      <point x="245" y="0" type="line"/>
      <point x="245" y="602" type="line"/>
      <point x="95" y="602" type="line"/>
    </contour>
  </outline>
</glyph>
<glyph name="gershayim-hb" format="2">
  <advance width="445"/>
  <unicode hex="05F4"/>
  <outline>
    <contour>
      <point x="236" y="332" type="curve"/>
      <point x="342" y="332" type="line"/>
      <point x="372" y="406"/>
      <point x="395" y="492"/>
      <point x="412" y="591" type="curve"/>
      <point x="405" y="602" type="line"/>
      <point x="276" y="602" type="line"/>
      <point x="269" y="518"/>
      <point x="255" y="425"/>
    </contour>
    <contour>
      <point x="32" y="332" type="curve"/>
      <point x="138" y="332" type="line"/>
      <point x="168" y="406"/>
      <point x="191" y="492"/>
      <point x="207" y="591" type="curve"/>
      <point x="201" y="602" type="line"/>
      <point x="72" y="602" type="line"/>
      <point x="67" y="534"/>
      <point x="47" y="406"/>
    </contour>
  </outline>
</glyph>
<glyph name="sheqel" format="2">
  <advance width="736"/>
  <unicode hex="20AA"/>
  <note>
sheqel
</note>
  <outline>
    <contour>
      <point x="244" y="0" type="line"/>
      <point x="479" y="0" type="line" smooth="yes"/>
      <point x="585" y="0"/>
      <point x="676" y="76"/>
      <point x="676" y="205" type="curve" smooth="yes"/>
      <point x="676" y="602" type="line"/>
      <point x="541" y="602" type="line"/>
      <point x="541" y="219" type="line" smooth="yes"/>
      <point x="541" y="141"/>
      <point x="489" y="120"/>
      <point x="447" y="120" type="curve" smooth="yes"/>
      <point x="349" y="120" type="line"/>
      <point x="349" y="398" type="line"/>
      <point x="244" y="398" type="line"/>
    </contour>
    <contour>
      <point x="65" y="0" type="line"/>
      <point x="200" y="0" type="line"/>
      <point x="200" y="482" type="line"/>
      <point x="332" y="482" type="line" smooth="yes"/>
      <point x="374" y="482"/>
      <point x="392" y="453"/>
      <point x="392" y="393" type="curve" smooth="yes"/>
      <point x="392" y="204" type="line"/>
      <point x="497" y="204" type="line"/>
      <point x="497" y="407" type="line" smooth="yes"/>
      <point x="497" y="536"/>
      <point x="440" y="602"/>
      <point x="334" y="602" type="curve" smooth="yes"/>
      <point x="65" y="602" type="line"/>
    </contour>
  </outline>
</glyph>
<glyph name="judeospanishvarika-hb" format="2">
  <unicode hex="FB1E"/>
  <note>
uniFB1E
</note>
  <anchor x="145" y="546" name="_top"/>
  <outline>
    <contour>
      <point x="241" y="756" type="curve"/>
      <point x="195" y="756" type="line"/>
      <point x="195" y="724"/>
      <point x="177" y="706"/>
      <point x="145" y="706" type="curve" smooth="yes"/>
      <point x="114" y="706"/>
      <point x="96" y="727"/>
      <point x="96" y="756" type="curve"/>
      <point x="50" y="756" type="line"/>
      <point x="50" y="698"/>
      <point x="86" y="658"/>
      <point x="145" y="658" type="curve" smooth="yes"/>
      <point x="205" y="658"/>
      <point x="241" y="698"/>
    </contour>
  </outline>
</glyph>
<glyph name="ayinaltone-hb" format="2">
  <advance width="481"/>
  <unicode hex="FB20"/>
  <note>
alternativeayin
</note>
  <anchor x="284" y="0" name="bottom"/>
  <anchor x="0" y="0" name="bottomleft"/>
  <anchor x="260" y="546" name="top"/>
  <anchor x="52" y="546" name="topleft"/>
  <outline>
    <contour>
      <point x="15" y="-62" type="line"/>
      <point x="225" y="6" type="line" smooth="yes"/>
      <point x="322" y="38"/>
      <point x="436" y="95"/>
      <point x="450" y="332" type="curve" smooth="yes"/>
      <point x="466" y="602" type="line"/>
      <point x="329" y="602" type="line"/>
      <point x="315" y="364" type="line" smooth="yes"/>
      <point x="304" y="176"/>
      <point x="292" y="153"/>
      <point x="149" y="108" type="curve" smooth="yes"/>
      <point x="15" y="66" type="line"/>
    </contour>
    <contour>
      <point x="125" y="67" type="line"/>
      <point x="259" y="67" type="line"/>
      <point x="191" y="602" type="line"/>
      <point x="54" y="602" type="line"/>
    </contour>
  </outline>
</glyph>
<glyph name="widealef-hb" format="2">
  <advance width="634"/>
  <unicode hex="FB21"/>
  <note>
alefwide
</note>
  <outline>
    <contour>
      <point x="450" y="0" type="line"/>
      <point x="609" y="0" type="line"/>
      <point x="427" y="244" type="line"/>
      <point x="184" y="602" type="line"/>
      <point x="25" y="602" type="line"/>
      <point x="191" y="372" type="line"/>
    </contour>
    <contour>
      <point x="47" y="0" type="line"/>
      <point x="184" y="0" type="line"/>
      <point x="184" y="174" type="line" smooth="yes"/>
      <point x="184" y="284"/>
      <point x="221" y="346"/>
      <point x="289" y="351" type="curve"/>
      <point x="247" y="439" type="line"/>
      <point x="124" y="436"/>
      <point x="47" y="330"/>
      <point x="47" y="168" type="curve" smooth="yes"/>
    </contour>
    <contour>
      <point x="386" y="178" type="line"/>
      <point x="504" y="181"/>
      <point x="580" y="286"/>
      <point x="580" y="446" type="curve" smooth="yes"/>
      <point x="580" y="602" type="line"/>
      <point x="443" y="602" type="line"/>
      <point x="443" y="440" type="line" smooth="yes"/>
      <point x="443" y="326"/>
      <point x="409" y="268"/>
      <point x="339" y="264" type="curve"/>
    </contour>
  </outline>
</glyph>
<glyph name="widedalet-hb" format="2">
  <advance width="555"/>
  <unicode hex="FB22"/>
  <note>
daletwide
</note>
  <outline>
    <contour>
      <point x="317" y="0" type="line"/>
      <point x="454" y="0" type="line"/>
      <point x="454" y="554" type="line"/>
      <point x="317" y="554" type="line"/>
    </contour>
    <contour>
      <point x="10" y="482" type="line"/>
      <point x="545" y="482" type="line"/>
      <point x="545" y="602" type="line"/>
      <point x="10" y="602" type="line"/>
    </contour>
  </outline>
</glyph>
<glyph name="widehe-hb" format="2">
  <advance width="650"/>
  <unicode hex="FB23"/>
  <note>
hewide
</note>
  <outline>
    <contour>
      <point x="458" y="0" type="line"/>
      <point x="595" y="0" type="line"/>
      <point x="595" y="394" type="line" smooth="yes"/>
      <point x="595" y="534"/>
      <point x="522" y="602"/>
      <point x="370" y="602" type="curve" smooth="yes"/>
      <point x="61" y="602" type="line"/>
      <point x="61" y="482" type="line"/>
      <point x="364" y="482" type="line" smooth="yes"/>
      <point x="431" y="482"/>
      <point x="458" y="452"/>
      <point x="458" y="377" type="curve" smooth="yes"/>
    </contour>
    <contour>
      <point x="61" y="347" type="line"/>
      <point x="61" y="0" type="line"/>
      <point x="198" y="0" type="line"/>
      <point x="198" y="347" type="line"/>
    </contour>
  </outline>
</glyph>
<glyph name="widekaf-hb" format="2">
  <advance width="557"/>
  <unicode hex="FB24"/>
  <note>
kafwide
</note>
  <outline>
    <contour>
      <point x="15" y="0" type="line"/>
      <point x="215" y="0" type="line" smooth="yes"/>
      <point x="411" y="0"/>
      <point x="522" y="109"/>
      <point x="522" y="299" type="curve" smooth="yes"/>
      <point x="522" y="484"/>
      <point x="404" y="602"/>
      <point x="215" y="602" type="curve" smooth="yes"/>
      <point x="15" y="602" type="line"/>
      <point x="15" y="482" type="line"/>
      <point x="205" y="482" type="line" smooth="yes"/>
      <point x="319" y="482"/>
      <point x="382" y="414"/>
      <point x="382" y="296" type="curve" smooth="yes"/>
      <point x="382" y="180"/>
      <point x="323" y="120"/>
      <point x="205" y="120" type="curve" smooth="yes"/>
      <point x="15" y="120" type="line"/>
    </contour>
  </outline>
</glyph>
<glyph name="widelamed-hb" format="2">
  <advance width="532"/>
  <unicode hex="FB25"/>
  <note>
lamedwide
</note>
  <outline>
    <contour>
      <point x="180" y="0" type="line"/>
      <point x="324" y="0" type="line"/>
      <point x="517" y="513" type="line"/>
      <point x="517" y="602" type="line"/>
      <point x="147" y="602" type="line"/>
      <point x="147" y="760" type="line"/>
      <point x="10" y="760" type="line"/>
      <point x="10" y="482" type="line"/>
      <point x="368" y="482" type="line"/>
    </contour>
  </outline>
</glyph>
<glyph name="finalwidemem-hb" format="2">
  <advance width="649"/>
  <unicode hex="FB26"/>
  <note>
finalmemwide
</note>
  <outline>
    <contour>
      <point x="45" y="0" type="line"/>
      <point x="594" y="0" type="line"/>
      <point x="594" y="394" type="line" smooth="yes"/>
      <point x="594" y="534"/>
      <point x="521" y="602"/>
      <point x="369" y="602" type="curve" smooth="yes"/>
      <point x="45" y="602" type="line"/>
    </contour>
    <contour>
      <point x="182" y="120" type="line"/>
      <point x="182" y="482" type="line"/>
      <point x="363" y="482" type="line" smooth="yes"/>
      <point x="430" y="482"/>
      <point x="457" y="451"/>
      <point x="457" y="377" type="curve" smooth="yes"/>
      <point x="457" y="120" type="line"/>
    </contour>
  </outline>
</glyph>
<glyph name="wideresh-hb" format="2">
  <advance width="559"/>
  <unicode hex="FB27"/>
  <note>
reshwide
</note>
  <outline>
    <contour>
      <point x="367" y="0" type="line"/>
      <point x="504" y="0" type="line"/>
      <point x="504" y="394" type="line" smooth="yes"/>
      <point x="504" y="534"/>
      <point x="431" y="602"/>
      <point x="279" y="602" type="curve" smooth="yes"/>
      <point x="10" y="602" type="line"/>
      <point x="10" y="482" type="line"/>
      <point x="273" y="482" type="line" smooth="yes"/>
      <point x="340" y="482"/>
      <point x="367" y="452"/>
      <point x="367" y="377" type="curve" smooth="yes"/>
    </contour>
  </outline>
</glyph>
<glyph name="widetav-hb" format="2">
  <advance width="689"/>
  <unicode hex="FB28"/>
  <note>
tavwide
</note>
  <outline>
    <contour>
      <point x="497" y="0" type="line"/>
      <point x="634" y="0" type="line"/>
      <point x="634" y="394" type="line" smooth="yes"/>
      <point x="634" y="534"/>
      <point x="561" y="602"/>
      <point x="409" y="602" type="curve" smooth="yes"/>
      <point x="39" y="602" type="line"/>
      <point x="39" y="482" type="line"/>
      <point x="403" y="482" type="line" smooth="yes"/>
      <point x="470" y="482"/>
      <point x="497" y="452"/>
      <point x="497" y="377" type="curve" smooth="yes"/>
    </contour>
    <contour>
      <point x="35" y="0" type="line"/>
      <point x="119" y="0" type="line" smooth="yes"/>
      <point x="223" y="0"/>
      <point x="273" y="58"/>
      <point x="273" y="179" type="curve" smooth="yes"/>
      <point x="273" y="558" type="line"/>
      <point x="136" y="558" type="line"/>
      <point x="136" y="162" type="line" smooth="yes"/>
      <point x="136" y="136"/>
      <point x="120" y="120"/>
      <point x="95" y="120" type="curve" smooth="yes"/>
      <point x="35" y="120" type="line"/>
    </contour>
  </outline>
</glyph>
<glyph name="alternativeplus-hb" format="2">
  <advance width="492"/>
  <unicode hex="FB29"/>
  <note>
alt_plussign
</note>
  <outline>
    <contour>
      <point x="299" y="436" type="line"/>
      <point x="299" y="626" type="line"/>
      <point x="192" y="626" type="line"/>
      <point x="192" y="436" type="line"/>
      <point x="43" y="436" type="line"/>
      <point x="43" y="329" type="line"/>
      <point x="448" y="329" type="line"/>
      <point x="448" y="436" type="line"/>
    </contour>
  </outline>
</glyph>
<glyph name="aleflamed-hb" format="2">
  <advance width="514"/>
  <unicode hex="FB4F"/>
  <note>
aleflamed
</note>
  <anchor x="257" y="0" name="caret_1"/>
  <outline>
    <contour>
      <point x="342" y="0" type="line"/>
      <point x="489" y="0" type="line"/>
      <point x="204" y="602" type="line"/>
      <point x="57" y="602" type="line"/>
    </contour>
    <contour>
      <point x="10" y="482" type="line"/>
      <point x="185" y="482" type="line"/>
      <point x="185" y="602" type="line"/>
      <point x="10" y="602" type="line"/>
    </contour>
    <contour>
      <point x="10" y="518" type="line"/>
      <point x="147" y="518" type="line"/>
      <point x="147" y="760" type="line"/>
      <point x="10" y="760" type="line"/>
    </contour>
    <contour>
      <point x="291" y="208" type="line"/>
      <point x="409" y="211"/>
      <point x="465" y="309"/>
      <point x="465" y="469" type="curve" smooth="yes"/>
      <point x="465" y="602" type="line"/>
      <point x="331" y="602" type="line"/>
      <point x="331" y="476" type="line" smooth="yes"/>
      <point x="331" y="387"/>
      <point x="331" y="364"/>
      <point x="286" y="322" type="curve"/>
    </contour>
  </outline>
</glyph>
<glyph name="hatafqamats_zerowidthjoiner_siluqleft-hb" format="2">
  <anchor x="221" y="0" name="_bottom"/>
  <outline>
    <contour>
      <point x="114" y="-223" type="line"/>
      <point x="160" y="-223" type="line"/>
      <point x="160" y="-128" type="line"/>
      <point x="224" y="-128" type="line"/>
      <point x="224" y="-82" type="line"/>
      <point x="50" y="-82" type="line"/>
      <point x="50" y="-128" type="line"/>
      <point x="114" y="-128" type="line"/>
    </contour>
    <contour>
      <point x="248" y="-234" type="line"/>
      <point x="294" y="-234" type="line"/>
      <point x="294" y="-69" type="line"/>
      <point x="248" y="-69" type="line"/>
    </contour>
    <contour>
      <point x="354" y="-234" type="curve" smooth="yes"/>
      <point x="375" y="-234"/>
      <point x="392" y="-223"/>
      <point x="392" y="-198" type="curve" smooth="yes"/>
      <point x="392" y="-174"/>
      <point x="375" y="-164"/>
      <point x="354" y="-164" type="curve" smooth="yes"/>
      <point x="334" y="-164"/>
      <point x="317" y="-174"/>
      <point x="317" y="-198" type="curve"/>
      <point x="317" y="-223"/>
      <point x="334" y="-234"/>
    </contour>
    <contour>
      <point x="354" y="-140" type="curve" smooth="yes"/>
      <point x="375" y="-140"/>
      <point x="392" y="-129"/>
      <point x="392" y="-105" type="curve" smooth="yes"/>
      <point x="392" y="-81"/>
      <point x="375" y="-69"/>
      <point x="354" y="-69" type="curve" smooth="yes"/>
      <point x="334" y="-69"/>
      <point x="317" y="-81"/>
      <point x="317" y="-105" type="curve"/>
      <point x="317" y="-129"/>
      <point x="334" y="-140"/>
    </contour>
  </outline>
</glyph>
<glyph name="hatafsegol_zerowidthjoiner_siluqleft-hb" format="2">
  <anchor x="225" y="0" name="_bottom"/>
  <outline>
    <contour>
      <point x="256" y="-234" type="line"/>
      <point x="302" y="-234" type="line"/>
      <point x="302" y="-69" type="line"/>
      <point x="256" y="-69" type="line"/>
    </contour>
    <contour>
      <point x="141" y="-234" type="curve" smooth="yes"/>
      <point x="162" y="-234"/>
      <point x="179" y="-223"/>
      <point x="179" y="-198" type="curve" smooth="yes"/>
      <point x="179" y="-174"/>
      <point x="162" y="-164"/>
      <point x="141" y="-164" type="curve" smooth="yes"/>
      <point x="120" y="-164"/>
      <point x="104" y="-174"/>
      <point x="104" y="-198" type="curve"/>
      <point x="104" y="-223"/>
      <point x="120" y="-234"/>
    </contour>
    <contour>
      <point x="87" y="-140" type="curve" smooth="yes"/>
      <point x="108" y="-140"/>
      <point x="125" y="-129"/>
      <point x="125" y="-105" type="curve" smooth="yes"/>
      <point x="125" y="-81"/>
      <point x="108" y="-69"/>
      <point x="87" y="-69" type="curve" smooth="yes"/>
      <point x="66" y="-69"/>
      <point x="50" y="-81"/>
      <point x="50" y="-105" type="curve"/>
      <point x="50" y="-129"/>
      <point x="66" y="-140"/>
    </contour>
    <contour>
      <point x="194" y="-140" type="curve" smooth="yes"/>
      <point x="215" y="-140"/>
      <point x="232" y="-129"/>
      <point x="232" y="-105" type="curve" smooth="yes"/>
      <point x="232" y="-81"/>
      <point x="215" y="-69"/>
      <point x="194" y="-69" type="curve" smooth="yes"/>
      <point x="174" y="-69"/>
      <point x="157" y="-81"/>
      <point x="157" y="-105" type="curve"/>
      <point x="157" y="-129"/>
      <point x="174" y="-140"/>
    </contour>
    <contour>
      <point x="362" y="-234" type="curve" smooth="yes"/>
      <point x="383" y="-234"/>
      <point x="400" y="-223"/>
      <point x="400" y="-198" type="curve" smooth="yes"/>
      <point x="400" y="-174"/>
      <point x="383" y="-164"/>
      <point x="362" y="-164" type="curve" smooth="yes"/>
      <point x="341" y="-164"/>
      <point x="325" y="-174"/>
      <point x="325" y="-198" type="curve"/>
      <point x="325" y="-223"/>
      <point x="341" y="-234"/>
    </contour>
    <contour>
      <point x="362" y="-140" type="curve" smooth="yes"/>
      <point x="383" y="-140"/>
      <point x="400" y="-129"/>
      <point x="400" y="-105" type="curve" smooth="yes"/>
      <point x="400" y="-81"/>
      <point x="383" y="-69"/>
      <point x="362" y="-69" type="curve" smooth="yes"/>
      <point x="341" y="-69"/>
      <point x="325" y="-81"/>
      <point x="325" y="-105" type="curve"/>
      <point x="325" y="-129"/>
      <point x="341" y="-140"/>
    </contour>
  </outline>
</glyph>
